#!OML:ASF I:\golf\golf\golf 2\Subject 1\2002-09-07\Subject1.ASF
:FULLY-SPECIFIED
:DEGREES
245
root -7.52408 17.9372 2.52597 9.66757 50.033 -8.76816
lowerback 5.21953 -9.76098 -10.5048
upperback 1.55339 -13.4556 -0.403135
thorax 1.03855 -6.79798 5.56317
lowerneck -7.47284 20.6473 0.412259
upperneck 11.4884 30.7715 -17.3891
head 7.6597 13.6752 -2.26567
rclavicle -1.59028e-015 7.95139e-014
rhumerus 25.6551 -22.7657 -54.7341
rradius 104.436
rwrist -1.02349
rhand -61.4024 63.7688
rfingers 7.12502
rthumb -33.4859 36.8724
lclavicle -1.59028e-015 7.95139e-014
lhumerus 108.143 -41.6939 48.0026
lradius 33.6642
lwrist -16.2162
lhand 146.54 171.657
lfingers 7.12502
lthumb -186.658 201.533
rfemur -36.5788 13.434 19.1882
rtibia 30.5991
rfoot -6.62306 18.6089
rtoes 20.2689
lfemur -7.45708 13.1853 -0.875647
ltibia 20.9295
lfoot -6.04374 19.3239
ltoes -23.9325
246
root -7.52831 17.9434 2.48411 9.81638 50.5741 -8.70258
lowerback 5.34638 -9.78502 -10.5016
upperback 1.65477 -13.4966 -0.203819
thorax 1.13178 -6.83172 5.7705
lowerneck -8.04054 20.5501 0.41528
upperneck 12.0154 30.819 -17.4595
head 7.95098 13.6022 -2.18875
rclavicle -7.95139e-015 -4.45278e-014
rhumerus 26.125 -22.2323 -55.2513
rradius 103.944
rwrist -1.4698
rhand -61.4313 62.9354
rfingers 7.12502
rthumb -33.5134 36.0449
lclavicle -7.95139e-015 -4.45278e-014
lhumerus 107.543 -41.631 48.5539
lradius 33.3286
lwrist -16.1225
lhand 147.074 171.785
lfingers 7.12502
lthumb -186.143 201.676
rfemur -36.7102 12.9819 19.0334
rtibia 30.5249
rfoot -6.71385 18.3225
rtoes 19.2506
lfemur -8.11383 13.6068 -1.08217
ltibia 20.9857
lfoot -5.20649 19.0262
ltoes -25.5819
247
root -7.53335 17.9505 2.43892 10.0424 51.1306 -8.5622
lowerback 5.43151 -9.78532 -10.5143
upperback 1.75758 -13.502 -0.00547568
thorax 1.247 -6.84918 5.97827
lowerneck -8.64727 20.5462 -0.176089
upperneck 12.5344 30.9299 -16.9618
head 8.06168 13.5837 -1.90462
rclavicle 1.68569e-013 1.59028e-014
rhumerus 26.4952 -21.6994 -55.672
rradius 103.578
rwrist -1.94387
rhand -61.6434 61.7268
rfingers 7.12502
rthumb -33.715 34.8803
lclavicle 1.68569e-013 1.59028e-014
lhumerus 107.179 -41.5158 48.8331
lradius 33.0057
lwrist -15.6829
lhand 147.235 172.1
lfingers 7.12502
lthumb -185.988 201.996
rfemur -36.8758 12.5805 18.7822
rtibia 30.4555
rfoot -6.8151 17.9915
rtoes 18.1079
lfemur -8.67945 13.7228 -1.36148
ltibia 21.0315
lfoot -5.10944 18.7349
ltoes -25.7631
248
root -7.53823 17.9602 2.39095 10.2399 51.7024 -8.49936
lowerback 5.46194 -9.85249 -10.4053
upperback 1.89132 -13.5832 0.236718
thorax 1.42171 -6.90879 6.15153
lowerneck -9.25308 20.5761 -1.0429
upperneck 12.7616 31.0608 -16.5092
head 8.04266 13.5917 -1.62143
rclavicle 9.93923e-014 1.90833e-014
rhumerus 27.0532 -21.0708 -56.1531
rradius 103.233
rwrist -2.62765
rhand -61.612 60.0508
rfingers 7.12502
rthumb -33.6851 33.1977
lclavicle 9.93923e-014 1.90833e-014
lhumerus 106.694 -41.1747 49.154
lradius 32.6737
lwrist -15.6087
lhand 146.989 172.452
lfingers 7.12502
lthumb -186.225 202.341
rfemur -37.0873 12.1586 18.5866
rtibia 30.4206
rfoot -6.87128 17.6113
rtoes 17.2296
lfemur -9.40294 13.8959 -1.67116
ltibia 21.0603
lfoot -4.57143 18.7574
ltoes -26.6775
249
root -7.54625 17.9663 2.34312 10.3927 52.3064 -8.44335
lowerback 5.40116 -9.22826 -10.1926
upperback 1.8371 -12.7313 -0.44714
thorax 1.03501 -6.44227 5.39821
lowerneck -7.43352 19.9616 2.36476
upperneck 13.1177 29.9531 -17.0568
head 8.34579 13.2484 -2.40756
rclavicle -1.03368e-014 2.8625e-014
rhumerus 24.7325 -22.1915 -56.2329
rradius 103.12
rwrist -3.29461
rhand -61.4701 58.567
rfingers 7.12502
rthumb -33.5502 31.6845
lclavicle -1.03368e-014 2.8625e-014
lhumerus 107.796 -43.1349 47.4405
lradius 32.5998
lwrist -15.0412
lhand 146.787 172.923
lfingers 7.12502
lthumb -186.42 202.806
rfemur -37.2784 11.5941 18.4686
rtibia 30.4286
rfoot -6.87318 17.3609
rtoes 16.6616
lfemur -9.95935 13.9227 -1.94243
ltibia 21.0884
lfoot -4.82082 18.6356
ltoes -25.8279
250
root -7.55785 17.9641 2.29481 10.4448 52.9572 -8.42572
lowerback 5.5093 -9.15061 -10.0923
upperback 2.0174 -12.6219 -0.410072
thorax 1.13439 -6.39823 5.38853
lowerneck -7.65629 19.8672 2.53682
upperneck 13.3543 29.8489 -16.9768
head 8.46449 13.1789 -2.38459
rclavicle 4.77083e-014 -5.725e-014
rhumerus 24.8692 -22.0316 -56.8557
rradius 102.684
rwrist -3.94506
rhand -61.3114 58.0562
rfingers 7.12502
rthumb -33.3994 31.1411
lclavicle 4.77083e-014 -5.725e-014
lhumerus 107.803 -43.1686 47.0753
lradius 32.3293
lwrist -14.9359
lhand 147.159 173.701
lfingers 7.12502
lthumb -186.061 203.595
rfemur -37.42 11.0088 18.3923
rtibia 30.4606
rfoot -6.78763 17.1372
rtoes 16.0866
lfemur -10.2684 14.0865 -2.13311
ltibia 21.1398
lfoot -5.36773 17.9408
ltoes -25.2519
